<mxfile host="65bd71144e">
    <diagram id="F-f_jQwFHI6yVS_NZPHK" name="Page-1">
        <mxGraphModel dx="1234" dy="659" grid="1" gridSize="10" guides="1" tooltips="1" connect="1" arrows="1" fold="1" page="1" pageScale="1" pageWidth="850" pageHeight="1100" math="0" shadow="0">
            <root>
                <mxCell id="0"/>
                <mxCell id="1" parent="0"/>
                <mxCell id="2" value="Where is state of Modal&lt;br style=&quot;font-size: 20px;&quot;&gt;" style="text;html=1;strokeColor=none;fillColor=none;align=center;verticalAlign=middle;whiteSpace=wrap;rounded=0;fontSize=20;" parent="1" vertex="1">
                    <mxGeometry x="90" y="170" width="280" height="30" as="geometry"/>
                </mxCell>
                <mxCell id="3" value="&lt;font color=&quot;#000000&quot;&gt;Option #1&lt;br&gt;Modal show a button and owns state&lt;br&gt;&lt;/font&gt;" style="rounded=0;whiteSpace=wrap;html=1;fontFamily=Helvetica;fontSize=12;fontColor=#FFFFFF;fillColor=#FFFF99;" parent="1" vertex="1">
                    <mxGeometry x="60" y="240" width="200" height="70" as="geometry"/>
                </mxCell>
                <mxCell id="4" value="&lt;font color=&quot;#000000&quot;&gt;Probably not a good idea&lt;br&gt;We might want to show a modal without a user clicking on a button&lt;br&gt;&lt;/font&gt;" style="rounded=0;whiteSpace=wrap;html=1;fontFamily=Helvetica;fontSize=12;fontColor=#FFFFFF;fillColor=#FFFF99;" parent="1" vertex="1">
                    <mxGeometry x="60" y="310" width="200" height="70" as="geometry"/>
                </mxCell>
                <mxCell id="5" value="&lt;font color=&quot;#000000&quot;&gt;Option #2&lt;br&gt;Parent owns state to keep track of whether modal should be displayed&lt;br&gt;&lt;/font&gt;" style="rounded=0;whiteSpace=wrap;html=1;fontFamily=Helvetica;fontSize=12;fontColor=#FFFFFF;fillColor=#99CCFF;" parent="1" vertex="1">
                    <mxGeometry x="360" y="240" width="240" height="70" as="geometry"/>
                </mxCell>
                <mxCell id="6" value="&lt;font color=&quot;#000000&quot;&gt;Better idea&lt;br&gt;Parent component can show a modal at any time for any reason&lt;br&gt;&lt;/font&gt;" style="rounded=0;whiteSpace=wrap;html=1;fontFamily=Helvetica;fontSize=12;fontColor=#FFFFFF;fillColor=#99CCFF;" parent="1" vertex="1">
                    <mxGeometry x="360" y="310" width="240" height="70" as="geometry"/>
                </mxCell>
                <mxCell id="7" value="" style="shape=image;verticalLabelPosition=bottom;labelBackgroundColor=default;verticalAlign=top;aspect=fixed;imageAspect=0;image=data:image/png,iVBORw0KGgoAAAANSUhEUgAAAZIAAABjCAYAAACxO4byAAABXGlDQ1BJQ0MgUHJvZmlsZQAAKJF1kL9LQgEQxz+aYYVQQ0RDg0M0WdmzIGgqiwgcxBKsJZ5P08gfj6chbQ21C7W0hS39A9VQg/9BUVAQEW39AZFL2eueVmrRHcd9+PK94ziwu1RdTzmAdCZvhOZn3JHlFbfzGQd2OrExqmo5fToYDIiF794alVvxSdwMW7sSHeer1+WNyMfJXeE+O7X6198SXbF4TpP+LqVoupEHm1c4WMjrFm8L9xpylPC+xYk6H1scrfNFzbMU8gtfCfdoSTUm/CTsiTbpiSZOpza1rxus613xTHhRep/UALPMEZB0E0ZhgjEmReOfmfHajJ8sOlsYrJMgSV6mp0XRSREXXiCDxggeYQWvlM/69e8fNrRsCSZfoa3Y0KIHcLYL/fcNbfAQunfg9FJXDfXns7aKI7fmU+rsmoH2R9N8GQLnHlSLpvlWMs3qkex/gHLmE5XUZRWtalA5AAAAYmVYSWZNTQAqAAAACAACARIAAwAAAAEAAQAAh2kABAAAAAEAAAAmAAAAAAADkoYABwAAABIAAABQoAIABAAAAAEAAAGSoAMABAAAAAEAAABjAAAAAEFTQ0lJAAAAU2NyZWVuc2hvdPJ+YM0AAAI8aVRYdFhNTDpjb20uYWRvYmUueG1wAAAAAAA8eDp4bXBtZXRhIHhtbG5zOng9ImFkb2JlOm5zOm1ldGEvIiB4OnhtcHRrPSJYTVAgQ29yZSA2LjAuMCI+CiAgIDxyZGY6UkRGIHhtbG5zOnJkZj0iaHR0cDovL3d3dy53My5vcmcvMTk5OS8wMi8yMi1yZGYtc3ludGF4LW5zIyI+CiAgICAgIDxyZGY6RGVzY3JpcHRpb24gcmRmOmFib3V0PSIiCiAgICAgICAgICAgIHhtbG5zOmV4aWY9Imh0dHA6Ly9ucy5hZG9iZS5jb20vZXhpZi8xLjAvIgogICAgICAgICAgICB4bWxuczp0aWZmPSJodHRwOi8vbnMuYWRvYmUuY29tL3RpZmYvMS4wLyI+CiAgICAgICAgIDxleGlmOlBpeGVsWURpbWVuc2lvbj45OTwvZXhpZjpQaXhlbFlEaW1lbnNpb24+CiAgICAgICAgIDxleGlmOlVzZXJDb21tZW50PlNjcmVlbnNob3Q8L2V4aWY6VXNlckNvbW1lbnQ+CiAgICAgICAgIDxleGlmOlBpeGVsWERpbWVuc2lvbj40MDI8L2V4aWY6UGl4ZWxYRGltZW5zaW9uPgogICAgICAgICA8dGlmZjpPcmllbnRhdGlvbj4xPC90aWZmOk9yaWVudGF0aW9uPgogICAgICA8L3JkZjpEZXNjcmlwdGlvbj4KICAgPC9yZGY6UkRGPgo8L3g6eG1wbWV0YT4KGwMJnwAAN0lJREFUeAHtXQd4VMUWPkA6KSSkQQKE3kJP6CAgSJfeq4UiFvD5UJ6ogD7EAgqKPEBBlCrSe1UEpPceWoAECKQREtIT3vxnc2/ubnaT3SRAiHPybe7cmTPt37tz5pwzd6aIr6/vY5IkEZAISAQkAhKBXCJQNJf5ZDaJgERAIiARkAgwAlKQyAdBIiARkAhIBPKEgBQkeYJPZpYISAQkAhIBKUjkMyARkAhIBCQCeUJACpI8wSczSwQkAhIBiYAUJPIZkAhIBCQCEoE8ISAFSZ7gk5klAhIBiYBEQAoS+QxIBCQCEgGJQJ4QkIIkT/DJzBIBiYBEQCIgBYl8BiQCEgGJgEQgTwhIQZIn+GRmiYBEQCIgEZCCRD4DEgGJgERAIpAnBKQgyRN8MvPzgEC1ar5Uq5Yff8qU8ci2yW/3i6WzK+6QjbXcyzRboGSiRECDgJUmnG3QwaUkDZ69QeWJjQijc9tX0vldqyk9NVWNf5oB19J+VKFRGzq343dKehSrV/WQ2RvJ3sWN0lKSKSYshG4c30vHVv+kx4ObxgPeorpdB5OdUwnm2/r1exR2+QzZO7vSgG9XM/9v/+5Lj6IjONz+X1+ST81Aurx3M+3/ZQbHPW//SpcuSY0aVaEdO07So0eJFjf/44/7U5UqPpwvPT2dzp69Sb//vp9u3rxvcVk5ZbC2tqIuXQLpxIlruS5/5syRVKyYbs4UEhJBr74602i1RYsQvd3vIQXfsaLkFHEjSSIgETALAbM1Emt7B3LxLkOOJb2IihSh0tXqUYf3vqZxG4PI0d3brMrym6nqC12ozZjJ5FGhepaiPSvWJGcvH7It7kRl6zWj1qM/odHLDpGNfXGVt8mgd6jFq+8LHmcKD75EJctVpkHfraMSpcqSjYMjlSxbiT8N+43hPEWtrKhWh34c5+MfqJbzvAVeeMGfxozpTBUq5O57q1GjLHl7u3K3HRzsqH37+vTTT+/QhAl98h0KJyd7bmv37k1yXfbLL39K+CQnZz/hebPvQ7K3fUxTF7rkui6ZUSLwT0TAbEGigBN69gjNH9yUZnSsQMHH/qJiVtbU8rUJSrJ6dStTkSo1fYkHcjUyI1CkaDExqw+gKi06UXE3T8NkvXvPSjWpSvOOenzFrG3IztGFrGztmBfaBO7x0VL8gyia0y+AvulYkS7+sY6cPEpT23emqiwN+45mbWruwEa09J3utP2bD6hoMStq8cr7Ks/jx+lUvfXLfF+382AqIv7yQpUqlaLmzWuQm5tTlmIcHGzJ3t6G4728XKlp0+qEOC3Z2lpTw4ZVCOUYo+LF7ahBg0rMo5Sl8GF27+hoTygDhEEa9/gYUhExWYDAqF+/IllZFTNMprS0dBoyZAb16TONr48fP6Y2bWrr8SlloD2o2xihbiUNJijUh3z4IA1tBNnZWattNWyPh4czY+XvX46KFs36SEOAJCQkE9qYHY3sEUcPYovS3hO65yo7XpkmEZAIZCJg/NedmZ5t6MyW5VQ+4AVy9sgc1Lyr1Ka+Xy4jW0dnNe+Zrct5kEaE/0u9qcO/p4uBIvMH//DebVrydlfVfAS+2p0GUru3/0vQAhQ6vXkZ7Zg5geNrdeyvRFOPKZkmqx+HNqcHd2+paUpg8xfjqErLzlRNaDFbvhwnhEop1jruXTmnmsXObf+dYLqCBqNQWNBpKiW0L2dPH6rdeSBFhlyjkkJIWkqdOgXQ26KP2kFw8+ajNHPmerWo5cvfp7i4BEpNTSOYn0AId+w4icMffNCb2raty2H8i4tLpHHj5qsmH2gEL75YR01H4PDhIPr44yU8iKL+jh0bqOlTpgxSw0OHfkN370bxfefOgdxWxRwEoTF9+hrateuUyq8NhIVF0/37DwjCr1QpNy6nceNqNGnSALW/GMTnz99Oq1btV7NC6K1dO5GOH79KEAKKgLt1K5y+/34jff31qyov+q30fenSPbRo0S5O+/XXf3GdCiPqWbBgJ/32214lyuyri2M6nQzSCXKzM0lGiYBEgDJHaQvBgFZQv/twzhW0dwtfoWn0m/4bWdvZ04m1P9ONE/uo1ciJVLvjALpxbC8FCb/CY2FTR/j42oUUF3mP6nUdSnW6DKIuH86m38brhIO7X1VqP24apaWm0MkNvxIEVo0Xu+vMaqKmvQu+pNNbllGt9v04785ZH9K9q+e4DQ/D7/DV8B80izjh14F5DkLM1ac8s8SEZQod8KQkxLOAUfLfu3pemM5qUNMh48hDtOvPeZ9R61EfK8lmXf38vMSA342FwoYNh2nLlmM84JcsmVUr8fQswSYYCJlTp64L/0BDrqN//5Y8kMLGv2DBdqpZsxz17t2MvvzyFerf/0vmSUhIok2bjtDOnafIxsaKRo7sIHwhValHjya0Zs0BkW+HqPuoMEU1YL/DrFkb6OpVHV7h4TFcRrlyntzW+PgkHqwhyF5/vT29/34vOnr0CsXEPMrSZ2g+aDd47917wFoB/CgQRGvXHqTIyFgaOrSNaE972rPnDEVEPNQrAxpLVFQcQUDAZwNN6MKFW0KYzSVnZweaOnUoHThwkZYv/4vzaX0xqA94HjoUROXLe9Fbb3UR7X2J/vjjFIWH69ejV6nBTc0KKeK5ILoWqtPWDJLlrURAIpANAhYLkjJ1GtM7a8/pTFbil4cZ/ektS7kK+A/gg7h16gA74RH5x5zJ1HvaYgroPYIFyflda0TaGrK2tSfXMhXo3M5V5N++j/A7VFab2WrEh+yH2fPjVBZISLh/7byaHh8TSfiUq9ec4yJuXqa7l4zPltVMIpAYG8OCxMXbl69IS4rTH2wgvOAP0lKI6E+t9n056tTGxRYLkhEj2rOp5scft/PAioKuXburrUIv/P77P9P58zc5bs+es3zt06c5axXffruOkpJSxIB8llchwRzk7u7MgzMEAwiDb+nSbrRy5T6aOLEfz/YhSCAE8KlXT6dRYUC+dCmU8yj/Ro3qyMHFi/8UbdAJWQinvn1bEDSVZcv2cHpR4ZmeOXMEQauA8IEpavfu0wTne7Nm1VmQwUE+Z85m5nd0tBMCryX16tWU5s3bxnHKP2g8/fp9odwShC0IbVNMgBA0hm0Fz/jxC3FhQQahcvDgJfbZQNAq2DFDDv/qV09ijqCbFv8kcihZJksECj8CFv9qUpMSKSr0OjumdULjb3XVVqlqOrNK2bpNacgPm/TQcxb+CRBMSoO/W5/FQW9lk+kLKOHjx7zntq3ka379g6YEehQVTgkPozms+Fn4RvwrKrSq9LQ05ZavR36fR+Ubtqbw6xcpNVk34Ogx5HDj46MzU23bdjwHTqKUlFRViGiZ4SvAYP3NN69rozlctaoPCxIM4DBv2dnpm2cUP0OWjEYifHzcOHbUqA5ZUv38PNU4tKV8eW8WHDCJ/f33ReFw38HpiAcdO3aFr/i3b995FiS+vh5qnBK4ceOeErT4CiENIYv2aMnV1VF7m2P49n3dT8HTNT1HXskgEZAI6CNgsSDBzH/lBwO5lFFLD1Jg75F0ViwDjrx5RZitdM7M9VNGUchZ3axSqS41MYGD3T6Zx0IES3Ev7F5LMcKfMXr5YSqidZIqTlGDwUEpK7dXB1d3ISRSKSUpgaJvB3MxDq76A5uVEDZKW5V6oGFt/3YC3T5/VInKctUOZIZOXeVey5OlgIwIzLxNEWbcb745J0tyTEw8+yIgROCDmT9/G+3ff4G1AqymspTQXjjRDenRo0whCi2iW7fPDFn4Xumv1vENDUZHWR3ewcG5EyQVK5ZiTQmms4ULd7DprWvXhsL538Zou7KLPHxON5Gp5peSHZtMkwhIBIwgUNRInNlRG6e+xSaoLhO+4zx3L53kq3e1upQQE6X3weAN8qrkLzSC+/Tn3E+FWewsFS/pKXwq+qakqFDdIF9b41DnzAb/UpMTOcbZ09cgJestFgVgVVfkraucGBVyXZiK0smrsr/KjJVmWIUGjcuQzgifDISlMfLx8aH169fz5/PPP8/CEhoayXFaR3cWphwiHj5MEGYeR4qNTRTmqXi9D7JCW4AmcuDAJX6nA1qC4SoqpYrkZN1gCb+GIcEHA4FXsqSzXh2oEz4Qc0gRDAEBlVR2rFQDoXxLSFmyi74bUrt29Thq7twt/E5MdHQcNWlS3ZBNvYf/xdU1c/m3miACjxKK8LsjZb1TtdEyLBGQCJiBgMUaibbMOxeOU7QYdLFEF+9tYNVTmzcmUcO+o8jNtwIdX7OAl9zW7z6Mgv7aTEdXzef3NbwEf/1uw9nm32zou9oiObxn/n+ponjRsOXr/yE43s9u+02stuoqXjB0pU3TMmfYWFEFeuH1CcI34yBWfYXT1QM7WUAgHnEvjplC7uWrUtk6TUgk0JavdPU9Tk+jkNOHCGa47pPn06U9G7ntyHdo+WxczCbtzNtYJmgIeAEQTms43rdtO0F4l8PFxYGmTfvdWJYscStW7CWYm5YseY9Wr/6bgoJuU8uW/rzU97XXZgmn+V120mPwxqBdu3Z5wuzcGCEvCE5pOMqjo2NZAEGTgP8Cy4tnzRrJ7dy9+5TwsfhR9+6NhD/iZ3Vll7FylTj4KeDHqVOnPDvuMcD37NmUv+9Vq/5W2My6YhUbtJ+AAPGOz6BWvEItKCiUHelbtx5jn8vAga14BdvLLzcyuSwalR05cpk6dGhAH37Yl06fDmYfkNasdvCsLbWsl0glXdIpMiZPcyyz+iaZJAKFBQGzfy1YbQXCLF5Lf/zvU759adznnLbs3V4UHx1JlZu1p/4zVlLnCTOFFlJLXdoLTSTx0UN68a1Pqe3bn/HgEv8gkldzKeVGiSW2POCLgQ0O/IEz11D9Hq9QooFjPPTcUbp6cCdrNe3Gfi4Ewo+k+Fce02PWdJCvdI0GrIksHNGW7otVWAqt/eQ1ir5zQ7S1A3Wd+AO/q4LVZlcPCFu/qNtcUkw5pvhDQsLpq69Wc18xkMFJjZVUWL6blYzXi2WzGzceYcf66NGd6NtvdWVo68aqJ6zWmjRpIJd/8WII16nlQX3nzt1kpzRWjY0d+zJNnjyIFD+O0lasuOrevbFYhjuaBZiTkwMLB+Q3LA9xWkL65MnLWIOBg37w4NZscvvf/7aI1VmxWlYOw0GfHS1cuFNoSUTDh7flvnXqFMjsWCyA5c3QxqZNG0aNG1flpcRITM8ws2rL/eWX3XTmTDC1alWLBVzPnmJyoaEPvnPlu49ff6CJlUGJgEQgJwSK+Pr6Gh+5csqZQzq2VPGoWJ2X+BozCeFt9GSxrUnMvdBsS3IVmo2TeHMejm7FQZ5thlwkoq3QWkLPHVEXDuSiGLOy+Pq6szC4fj2MHj6MNyuPlglmJ7yMaG9vyyu/jG1xgn2lUL6xNG1ZOYXxLounpwuFhkZkWbKbU14lHW/Pw+SmCDUlPj+vEJ6VK/sILS3UbPObqfp/mxZOgTWSqXIPHxKKkCSJgETADASemCAxo27JIhEocAi4OQszWo0k2nPcTu63VeC+HdmggoqAFCQF9ZuR7ZIISAQkAs8JAmb7SJ6T/shmSgQkAhIBicBTRkAKkqcMuKxOIiARkAgUNgSkICls36jsj0RAIiAReMoISEHylAGX1UkEJAISgcKGgNmCRCwTFu8o6O/hVNjAkP2RCEgEJAISAcsRMFuQWF60zCERkAhIBCQC/wQEpCD5J3zLso8SAYmAROAJIpCnvbaeYLuyFG3j4kVpCbGUlpz1bXCr4iUoPSlevJWenCXf04qwtrYW53KUowcPHoi3wC3bmPBptfFJ1lOmTBnue2xs1i1QTNVbpUoVccyuNSfHxMSIN+iz3+XAVDlPIr6gP29Pos+yTIlAbhEo5uzsPNmczIJPbLnxSGygZ94OsOaUaS5PMdvi5D9msWB/THG3dBs1KnltnD2p5hu/UFpKAj26fUGJzrfrrFmzxMaAvejll1/W+/z1119i76nMbdUDAgLESX5TCYPjrl278q3+56EgPBsLFiwQB2o5i40Rj5jd5J9++onatWsnTn5sS3Xr1qXNmzcbzevv78/YxsXF0Y0bN4zyWBJZuXJlsTFlQ7ETcYjR5/lZPm+W9EPySgQKCgLPjUZiCjBoIckPwigpWndkrCm+3MZjxmwlzo13c3Pj7dUjI3VbwhueLWJ4n9v6nsd8ue17v379+FjeJUuWZNttb29vcR68F0HrySuhrfXq1eNJkXYiYG65T/p5M7cdkk8iUJAQKDCCBFuxY9DO/HEXIXuvCpSenECp8TFGMcMZ8WmJsXRxwSi93YPFISlU1MaOHotjcx+nZ54vgbPai1jbijITydbWRmy7npzjTrZjxozhun/55Reecb/yyitG22IqslixYmKDRXtxfnkxqlixIp08eZKFkqurq9j6XXc2iqm8xuJhPsMKulu3bvGM2hiPqThbW1tuR8mSJblNly9fpgoVKojNIx9mMceBt1atWmyuMtZODMg1a9ak+Ph4cSa7Trga1uvu7s59hrnr0qVLfJqilgf4g3LaTVibx9wwME9I0J2Bo80DjRHfxalThkcz5+V5EydriudNdDCLebWojT0/hzbWxcx63rRtlWGJwPOCwDMXJC4uLuK8C3+ebZ49e1acEXGe7EqWoSqDvxE/TnvGMSkqNAuetiVKUfURP6rxd/YuovuHV/E9ftS1x/5OD68fo+urJ6s8Xk37k3fTgRT061iqWcaVB9GbN2/ShQsXxIFR5tv21QLNCPTu3VucozGIB0sMvvAFwASE8LFjx+jTTz81oxScw+5MixYtYu1IyQChO2XKFLEt/DklKtsrTG8w66BuUHh4OHl4eHDbUPbatWs5fujQoWzOU/hQz6RJkxgnMFSqVIm++OILdTl4VFQU59P+mz9/PkGTUAjC4tdffxVnqaxWovL9iskIhHXVqlXJwcFBnFm/MksdeNYgYG7fvq2m5fV5Q0HVXplDMImd/a6fWq69p2jLsFkUdnAF+SZeeirPm1q5DEgEniICz2TVFmaEmBnC79CpUycWImFhYeoM26/7RCpqbUf3Dq2kW1tnkrWT/nG4wCf54X26vPhdCl73Xx1cmvNDoMXE371MTn71xKCZ2UU3/7ZCg4mjhHvXxBbs13gmXb58eerSpQt17tyZByFl8LT0O4Dtfvfu3Sbt/Js2bSLwQHDu2LGDrly5Ig6lamB2NRiIoYV8++23BC1p4cKFPJB/9NFHZpcBRvRvxowZlJiYyEIE5WFgRf9B0FAg/JA+b9489vfg/aGJEydyOv4hDO1x586d9PPPP7OQUxMzAhBSEBxvv/02TZ8+XZy9EkfDhg0TW+i7G7Lm+R7aXfPmzcWxu33FAVgBLGwxKTEkPz8/xswwLa/PG+qJOruLBYmDd2W1Wo8GXTkceXJLvj9vaiUyIBEoAAg8VY0E5hI4OXE0LQY0mFQwK79+/brq9MSszs7NlwXB3X2/MkQ2zh7k3WyQHlw44TA+7ArZKGavjFm2whRxchOV7fQvcqnSlB4E7SeswoFjPvzERmaJjo7mgR/+D8ywIdjQNgxEcMIePXqUUlJ0R9IqZWZ3vXfvnjhVcJZJljVr1rDZDoMZZuUvvPACawcYpBUTj8nMIgEa07hx49inAPxgKsKsGmYuSwgCAgsFevTowXn//PNPFiIoE4SFBSAIAcX5DeGifGDGgmkMdX///ffMC/8FJgRaUgQPNJ7793EA1WF2qlevXp327dunZc0xrJg7DXHCJADmt+LFi7PZDIIW2iVWzhmjOnXq8HeKSYRC+fa8ndosntGB5NHgZbq5eQYXX6JKc4I2nfIoiqIfUb4+b0r75VUiUBAQeKqCBDNHZeCDjRqDoaF9HGYGkHYFVuyNk1kESU7gRV/cS2U6jCX3up1YkHjU180OI45v0MuamprK7YC/AINSjRo1eBkvTGwwQ+UXYcWbYrNHGAM6CIOg4QBpqk6Yk9A+Q4KAVgZbwzTDe+U0QtSprMBDXmiJIAgF0N9//81X/AMWECQYuEuU0J3zDo1KIazUMhQkw4cPZ2FlqOEp+ZW85lwV0xmEv5bgowF+0HYgEHE1RTCzwdx1+rT+qr/8et7gx0sMFxpn5aaiCTPI0def/SYRp7fpNelpPW96lcobicATRuCpChKYO+Bshg0byz1r167Ns/+LFy+Kc8N1g4ThUb7cf415ylw84GSPvXmSnP0aUJFiVuRaozWbw5Ie3NUrAqYWzJIVLQkz/6CgINaW9BjzeAOBqQhNbTin896VagcMGMBCBGYZaDQQfJMnT2ZNynCwVvIYuyptMJamjdOWqYSRVxE+Wl7DPkDo9OzZUxyrG8WazYkTJ6hjx46EPuSGoEHAzAatRksQdvB54Lvr2rUra23ABfyG7cRKLcRh8qKl/HreUGbE6a3k2/YNcixbhycwiIs8sx0XlZ7W86ZWKAMSgaeAwFMVJMoPGT9maCeYUZYtW5Y1AMzQMTBERumcoMV9a6rdd/Krq4YtCUQc30jO5QOoVIthZOXgQmF/L1WzQzNq1KgR28wxS4fTHTNvmNsKIjVt2pQF0SeffKIOktAQ8pvu3r3Lwgk+h40bdWZAfE8gmCAV7QCmQIUCA3VnqCv3rVu35iDeLVHMWMDaFGHlF3xHpgjPhmJm0/Jg8oHyoU3BPIkJCvxO9evX55cb9+/fz+xYug1NCM+dopEp5STl4/MWdW4X+b44mjzqdyGn8g2EeTaIVx2iLkueN2jG7733Hjfxgw8+IJhNJUkECjICT1WQaIHAIIAfurLSplq1amx7hz0dJgIHr0rk02YEvyPiGaiz22vz27qWJit7Z7JydONorOIqXroaL79MuH+d4x4GH6f0lCTyDOzB9xGntqhFwIQDUxM0pODgYFVbUBkyAlhxBT8GzCJoq7L8d/ny5ap5yjDPk7g/dOgQC9w333yTX/rr37+/+lZ4fta3atUq9t8MGTKE+w3tAn4daGpYLADCd1SqVCke7LBIAi8VagmLCbp168bOb5jxYPZCOabo+PHj7D8ZP348nTlzhgd8CHaF4BuCcMLqNMX3oqThigkKtEh8IDAg+Dw9PVUWCBZoU8ZWt6UlCTNjPj1veNbibp8X5q0mXHf4iU1qG8x93pABgg8fEASsFCQMhfxXgBF4ZoJEwQQzRNjbtTb34HXiDfEh3wrHZTdmg2Cw96wgBoN0JRv5vfyBiKuo3pes3Z7wEUx0arrOH4LEmCsH2KyFwUL7PgoGL3MIK4EU0w744aQGYbau+Dk4wsQ/ZQasNWchTjExGZpgTBRDGOAxmOItcHyQDxoCBmilLFN5tfEKr7Y92nQM4BCSEFRYZQVCP7HMWKHPPvuMvv76axY4iMNAh4FS6SsWK2ARBbQDmN9QF3xiMGcqPEpZuC5dupSXCkMLatGiBa9qmz17tsqCFWL4DnDNieBo1/p3nJyceHUaJgumFk/k5/MWIYQH/CNYDPLgUuaiAnOfN/RP8VMhDHOwJIlAQUfA7DPboZpjJmquYzg/Og5HaJpYypsSG5EfxRWKMmASxAdC5EkSzEXQErPbAwvmJGgcMIcZI2hyeK8DfgtzBaaxcvISB8GEZ3fdunXqYgdT5RWU5w3LpWE6hD/MmAZmqv0yXiLwrBAo0ILkWYEi6y08CGAnAAixgrQhZE7o/v7772xWfP3116VGkhNYMr1AIPDMTVsFAgXZiEKLgNbX8rx0cv369XTnzh0pRJ6XL0y2k6RGIh8CiYBEQCIgEcgTApn7h+SpGJlZIiARkAhIBP6pCEhB8k/95mW/JQISAYlAPiEgBUk+ASmLkQhIBCQC/1QEpCD5p37zst8SAYmARCCfEJCCJJ+AlMVIBCQCEoF/KgIFQpC4ePmSs6duG/N/6hch+50VATc3J7Ejs5/6sbEpPKvVW3g3o7nNZ1OxIrpdl5Xe21tbkY2VLq6oeJvfXvTZSmzNUxDIwcaaPJwcLGoK+Mu7l+BPGTdni/I+78zFxPfm4mBL+B6fBeG5wfOj1I7nCveGNLHuBzSsymDDaIvus5ZqUfb8YR7+406KfxBJPw5tnj8FFsBSilnbUN0ug+nGiX0UeTNzC/YC2NR8aZKLS3H6z3/6iI0UfcTWJlZii/dEOn78ithaZY3Z5Q8a1Eocfpa52ePYsfPFeSO3zM5vCSPa2KVLIJ04cU1s4HnfkqwW8xYRP+3R1UfQuegLlPY4Tc2PAefXEV3p3sNH9NaSHdSoQmn6V/uGtOvCDZq356TK96wCb7apTw38SlH/uevMbsK7LzWkyl6uzJ8qtgYaMHe92XmfFWO9sl70KCmFLt/LevKnJW3qUKsCDW9Wi95ZtpPuPjB9xIElZVrC++aL9al55TI0bfNBOnEzjL4f1I7cittTnzlr9Yo5G32e3qwxmtbd2EgxyTF6aebeFIypjrmtfY757JxKUJsxk6lB91ef416Y3/RZs0aKvbYqiS11cN5LKO+V1a5dPfMLEJyzZ28SguRTsffXXxblyw2zk5O9OHmyM3XvrttwMTdlmJsH2oi7nTutuLZSL4sycX1WM1i9xhi50e45ZyTZaNTHa/+iQfM30JmQJyucjVaey8ix7QLp1Ra1c5k7M1u4mBBgUhCfnJIZ+QxDmMAYo+2hO3lCM7BS5jHRxviyi3tmgqRkucpUrn5zMcCYboJbmYpUuVl7snM0vcU4Zvpl6zal8oGtyMa+uNrXolbCRKC5RwJ4rWxsmQfpKNfBpSSVD3iB2+Ho7k1elWupZWgDaEulpi+RbXEnbTSXp7QP5rlS1fQHS/QP6XZOuj5Y2dnr7kUc2mAp2dsLzaZuBbGFhlBZxchjlWEGQTmIMzT/2Npa6/Eo9ZUp40FNm1YXB0PZKVF6V0dHe9YkEFmtmq/Ymr2iWh/SDM8gQTsQD6pRo6w4I6QkHToURP36fUn//vcCcf2C3nlnHqdr/6EP4Ef52r6AB5s9JiQkszDS5jEWzqk/yIP2oc/+/uW4L4hD/YiHIAHZ2VnzPeIM26O0FQISGowxQj4lTYublndgpf4UHHuDP9r4/AgXKyrMYaJtxcX3XsXLjYcOZ3tb8nHVf25RF4aVsiWdWWOAGcYYOdraUI3S7mSdcfCZIY+dqAsaR7VSJVWTnJYnLf0xJaemEbSR/KBSJRzJ38eDnOxsshSXXX8gnIELrrbiWQU2hoS+gEewEPBAGB/DvrsIPIGJn7v4DYPZCOF7OC60gLFCG4mJT9LjYJOTKBcE01d2Jj+YBlEX2maM0D7lu0M5lTxdTYgLY7l1cUlpSbQtZAd1Lds5i6nVdC79FOOt0+fJ1zsbB0caPn8HwS8CSk1OoqIGDynSBn2/gYq7uqt1Xz24k9Z+8pp6j0DH8TPIv11vjAa6eDHwrP90NF3ev5W6/Gc2VW3Zib5uV1bNM3rZYR6c5vStT436jaHmw/8t7tNF9qJsWnNwEQ+XKOv64T9o9UfDOZ93ldrU98tlZOvorJZzZuty2v7NB3zf6YNZXM/dSydVIfIoKpx+e78/m7DK1GlM/b5eoeat2bYn4QM6uPQ72r9oupqWU2DkyA7Up4/O/IdB9sGDR2IDR0exjftHnHXx4vd48OvV63O1qE2bJondcC/S5Mm6s1iqVPGhL798RQyWmQJk69Zj9M03meYKCJe1aycKU9RVHnQhjEC3boWLM9p30qRJA8Xux0fou+82qPV8/fWrzAvBAcEACg4OU9MRgGaipc6dA8WZ7l3FeSK6QSwtLV2c775GnBN/SsuWbdic/mBwR/sqVSqllpWSkiqOFf5cmN58OU1JaNu2rthdWXf+zdKle2jRol2c1LhxNdHvAapwAf7z528XuzLvV7KyUDaF22uvzVL5yjqWoZ23d6v3+RloU92PRr5QlzCAYzALj40nd9F/CME9l27RD3/odr3G4PRhl6Y8qKJ+9GfOHydoT9AttTkjWtall/zL8z3SYxL0B8RhwmzTpU4llR8B1DFH1PFYLzbvNzDzjW0XoDeorzp2iX47cpELz6k/tXw96KOuzehM6H2q7as7YgCawuzdx+losG7T0UWvdWHMUCCEBMyMIGhTn238m8Nf9W3N/h6+Ef+Ay1xhdvzj4k0lil6uW5mGNPVX7w1NW8Oa16IO/hXY3FS/nDfzhcU8EnXsp/sP4/kegn9yt+ZUwiHzd7rmeBAtP3xBLRfCBW3cezmEAvzECaDChwUKCouij9b8pfKZE7gUE0Sdy3Yk3+I+dDMu8xkwJy94nrogaf/ulyxEbp8/Ric3/EqtR31Mxd089NrbffKPLESCj+6h87vWUKsRH1KlJu2oTueBdHrzMuZt1H8M+b/Uhx5FR9DhFT/QnQsnqNmQcXoDvl6h4gY/JnzxWjq57hfCYO9RoTqX7VWpJlVo2JpZihQtRv2m/0bWQos4sfZn9m+0GjmRanccQDeO7aWgvZvVotx8K9KOmROoVPX6VKt9X3pxzBRa+cFA0a7jtOTtl8ne2Y16TV1EVw/soEPLZ3M+S3wlfn5eLETixexm4cKd1Lx5DdZM1AaYEYAWMX36azzrXrtW2E2FPwDCqWPHALHt+1Xau/ecXimYeUdFxYlt3veIXX4TWUDs339BbCufLLa0r60KEszAa9YsK/aHihT8sULIHBblthdb0bcU59KXFkLpoDhD5bJe2eXKeYoz6LsR+oPBOlXMWl9/vT29/34vOnr0ith1WBxyngOZ25///ncIC5Fr1+6KunbzVvYwY2GHY/hc3n57Ljk7O9DUqUPpwIGLqilN8ZWgno8/7s8CD32JjIyloUPbcB/37DlDEREP9VpqDDeFwdPeg2d9t+JClCj1mi4G/3UnL9O9jL4HRzzg+5M3LT/YauXRizxg1vRxJwy4mKm+ULUMCxLMoid0bsJO/GWHxJHSQkAMb16bxggfyIlb9+ihuMesH0IEA9zCfac5HCD8IxBQCiUIs+XvRy/Roeu3eYAf0KgGtapWls6KwRqDW36Rl/C3vSd8RUniGVlz/CL9fSWUAiuUIreMQdac/ihtqVnag375+yzFiWd4dOv6BGGpCJJ3V+xiTKb2eoGi4hJoxvYjnE0rQO+Kydu2s9fp/J0IKuXiSKNb1aM3RDnHb4Spgnb3xRucDiwgMExJ1QoeJUQdh6mihyt1r1+FBjSqSbN2HmUt57MeLVkwQHBcuhtJg5v4U88GVen87QgWhkp/cG1ZpQx/T4sPnBNmtFTVJwWhHiH6ERKlez5XC0FUQmhAxigkTjfJK+/k93wIkgqN2lB6WiotG6eblceEhdCgWfrOH8+KNSgxLoZWfTiU+3z/2nl69afdVK/bcFWQBPYZxWk/j2hLCTE6p9iqicOMYZRt3OGV/6PkxHgWJEd+m0PV23Qn76p12GRVo20vNo/dOnVACLTVXM4fcyZT72mLKaD3CD1Bsv/XGdw2CDpoHCV8/JgfGtfdS6eEsNTNgqCt4N5SGjCgJWeZN28rbdlyjNavPyQG7E+EUMiq4psqu0OH+gTT2KlT19VZ/5w5m2natGHUu3ezLIIEGgJMUgpt2HCYg3/9dY7atxcCs5af2Or8hjijpQkL6dWrD3B6knBU/u9/W1gwBARUJnwgMObO3UJbt+pmxKNGdWTexYv/FCdT6mZAmzYdEYdhtSBoKsuW7eH07P6Z0x+Y+iDk4OwfPfoHtTitYIOmhBViIAhOQ82pSZOqbDKE4AVeIGh0EJS9ejUVxwDrn8tuCjfkK1Ncp4nfidfNghGnEIbopQfPK7c8OGjv1QQzAnDQY+CFINl5/gZFiYlAXeFEhlmlaik3NtnsFwPy2hM6AY/ZLDSM1mLwW3/yCnUUjmLQ9G2H6WZkDJ0UAmb56G7CbFJErR3CCoSVQO6ODrTx1BWqU8aTqnqXNFuQgN/YSiKU+1CYNS+IAbt3QDV+vubtOUX7r+gE1AbRRoWqly6ZY38U3sNC6G06fZVv24s+VhSDuUKKQxwCPVForMoArKTj+u0OnXCBSSrqUQLtEwITQgAazOkMPxAc9dfuR7O5j/NmQqYtSgi0c3To2h3+dKlbSZi4dM9gYPlSbLo7cPU2Hb5+h/Ms2n+GIOA61a6YRZDAbPj20h1q2Qeu6oQC2qO0CYnbz11XeQwDd+N11oOyjjprgmF6TvdPXSOxsXOg2IjMHxFm7EJNUNvJy4DFjCkiOEiNw8w9PTWVHDMGYyTA54CVXooQUZktDCQ/iqWUBN3sNwlhIVRAtsKHUapaHQ7DBzPkh00cVv45e5RWgnw9v2OVeo9yrKyNS36VycJAafFjAcFMpVBoaKSeuUaJN3WFzR4EH8sPP7yhx+bhkdUPdeOG8ZkwNAgIEszKx49fKM5Lb8gaBcxdCmHmvn79YXH4lb84ITGA6tQpT//6Vw9xIuV1CguLFj4UN2YdNaqDkkW9+vnphK4aYSJgTn9gugKdO3eDr7n5V768zvxw7Fjm4LVv33kWJL7CZGJIpnAD34OMVTEu1pmmUsP8+XGPgTBJfEAJKSksVBDGoK34S06HZH6/EBQQJKVL6AYzaAHQ3iFEFLodHUu+rpnthpAa36Ex+2MUHlwdhZ/JXBrfsbFqXjPMg4F61C/bqEyGf+dIsG5QNeQzpz9KnuMa7S5U9AeamiUEs9XAxjVVE5iS18nO8t/7sRuZ4yD8KLYZPlNoKqCmlXz4o9SBq7f4XgwJGkteydlG971GJ0XnqqinLkgem9LzMpqvnIJYRMycDElrlnospDBMVSZJ+D4MCc729KREvWiUo9SpC+uEGup/nKHGr58yikLOHtbLl5qYoHcP4aESBGN2bVMZswaUPmn7qs+VKXQNeTTymLPAN6AlzLRAU6YsY01Cm5aYmHVlSXBw5kCj5YUpJyQknDWSUmJ26+3tSocPB2UxG+I0xD//PMOfVq1qiUOa+gkNpwXNmrWBi0P7+/SZpi2aw48e6dviszBkRJjTHwUjBVdTZWUXr5ShXWBQVPgfdJT5fShlmMIN6YpJC36SvJBSO8rI2gLd3CxdeSDAkBHWmXd1NWsdxdowl5lRKOpRytdqI/C/QIhYCf8W/C5nxPNgVawI/TC4vcihbZ2uLlP/31m6M8ugrPAmi3NkQJn1Kyn6V6Wb2j5ow1ruRO0KKqVgLUM2YZiy4Pu4I5byLj5wVpicosTyWl96rWWdXP3cIewVwnelDBnK9zZl/X66Hv5AYeFrirASGFKwAY9hujn3iqYcHBtsDnsWnqyjdRaW/I1ISYgnrI5SyNc/UG/QjQ0XUlqA6l6uisJC7n5VeYXTo+jMY0eT4h6SvXCOax3yagYRSI6P49sytRvzFbxw9FtCcKCDvKvVZc0H2o/ySUnSFyQ5lZsmTFwgQ3+QNt/MmTPFLH49f3BErJYwiwc1aVJdjfb1dVfDCCSLH4my+gj37drVxUUlxWSDmXxMTLzeB+YoS2jFin3sM/jmm9c5288/71KzwzlvOHDDtARyd9fNfEJCIpinpFg1ZNgW+Eu0FBoawbcVK2Y+N4gwpz9BQbc5L8xw2RGWKYPc3LI+I4pgCAiopBYBHxUI/bCEUtJThFbygPIqSOBkXTmmB/30SidLqmdeaBYgmJUUUsK3H+jSwmLi+PvxEy8TKlRaLOxQyNO5OGsif166yQ52aA/woZii+8LpD7Oa4eoj5MOCAGMfZbXTrciHXGyjij5GizenP0YzmohMExMgRyMmYzj8QfAZHRM+kbikZPbVmCgm19GK8IC5DAsCtJ+UDOGa68JNZCyXYdK6EXfTBEf20U9dkFzev008oEVpyOyNVLfrEIJj3ZDCLp9hpzlWO+Elvr5fLWeW42sXqqyHV8zh8KsL/qDGA97iJcB9vljCDnkk3L54gtNfGjeNnfKDZq7he0v+ndv+Owukhn1HcTshlGq82JMGf7+eAnuPtKQo9vnAN+Qnlho3GfQOVWnekZw8TP/wDAtfuXIfR8G30KFDA/r882Hs79DyKYPzRx/1o549m9Lw4W21ybR9+wn2VcAPMXnyIKpduzy9+GJd+v770cJH0lyPN6ebHTtOiDPQU1kwREfHERzZCjVrVoP9N1iRheW2MIFNnNiXk2ESAsGvgJk+3jd5880uvMQYbViy5D2ClqMl+GTA+8or7XjBwUsv1eNkc/qDNp45E0wOwqa9YMFYXiTQokVN+uWXd/WWPscJpyR8G/Dn4EVICAoPD53QO3jwEkHQwjyHBQLDhr3I+KJNq1bpVvNo25tTeNftP6i+ez2yt9LXGHPKl1/pF4XfAYNTowo+1K9hdeEPqchX9OfPjNVHm89c4+rGd2xETcQA/rFY8QRBoBD8CQkCW6TBMd9D+Alg8jFFfwnHL2hCpyacR3lJ0RS/Nh6LBdA2rEZDHeVKurDjGS/7gczpj7a8nMIQel5CUPYJrMZ9w5Jj0IFroXyF0xvLh+FoV1aAcULGv4rCXIZ0b1EGCKYq3HuKBR3m0DGxigwLHuBgHyXqQH6s7vqPWCDRqmrufBg51dvO90W69CCI4lJ0Zv6c+A3TM58Mw5QndL/ru4kUHXqdHdrt3plKxcR7HfB/KOYlVLtuykiKiwhj4dBu7OesdWCF1NmtK9RWHV01n05tXMzvZLR49X1eYov3UrCKCwRe+F/cfCvwMmH4PBQtBekwY/EVJjDxkGYJi0EfbVr2bi+Kj47k91n6z1hJnSfMJK9KtdR6REGc15x/+xZ+xbM8LDvuNmke1ek00JxszHPlyh2CsxtO3vfe60GBgZV5Jq8tAA7u+/cfCL9ELXrjjU6EPFrCj/Hdd3+k6OhH1KxZdZox4zWaMKE3+1kgDAwJpqns6MiRK5y8bdtxPTas3oLZCW+lT5kyiIYMacODNoTPjh06LQ+msa++Ws1aTffujVmYwV/iJNbNG2pHaPfcuVt1g4lYZfbvf/fk+sztz8cfL6GLF0OobFkP+vDDvvTJJwMImpCh5oPVcDAvQABjiXOnTkJbFoR6Jk9exvxYCDB4cGteBgy8sUrNkHLC7bdrv3OWrmUt1yYM6zK8R1tBypXDuEdAEL4XhKduPECY3cKRjZfv8K7Ed7uOU6xYzQSC3R1OabzHgLfrsXw2UghbLf0qVj9Bw5gklqligD8l/CyoV1u3wn9VOJ/hjK/oWYLLe12sljKXoK18seUQlwuBNb1fG7HCqYbQCHRatDn9UVabZVh3s60auwjgRcK+gdW5b6+1qMP8WJqLlVDVxTszcHy3qV5Odf4r5igwTu35AqfjzXbQOPGCI/ghREHG8OGEjH/oz0SxfBf9blvDj77s05qFCL6Dhxnfj5Y/LeM718ZZEvZ3rUGlHUrRT0E/W5JNj/eZnZCId0UcXD3ECibdwKLXqowbzNjxIuCd88fJlCkJ2o2nWLKLFw2hyaSl6H4ISnl44dDOuQRFhehmWEq8pVeU41GxOsVF3numW5xgmSpeqMPKKwyomF0r75EofcLLeQ/FQ5/dElpsYQJTEZayKstclfzmXhcuHEswr3Xr9hm/OGiYD2YspGO58LVrYazBGPLgHgsJPD1dxLnqEVmW0hrjNxZnTn9gcsN7J1hBptWgjJVnKq5CBW9eKQfBlNOAYKoMxI+pMYpal25FfXcPzFM52dVhThqct9iDKUSYjzCAGRIEBZzZN8RSZGUwNuTBXlp3hSlMa/M35Mmve6wOw4qpO8IEh+XHhpRTfwz5c3MPzQyYhEY/NIlJbso1lgcvlsI3gyXIECxPgv4bMJlcbV3pzb/H5rr4ZyZIct1imVFFADNrY4JEZXhCAZh98B5Jy5b+dPp0ML+5/oSqKrTF2hezozLC4X7t4XW9/bYKbYdlxwosAljyG5vykKKTHuS6jVa5zikzPnME8qjR5rr948f3Yp8DTFiffLIk1+X8kzMmpCXS5RidafCfjIPs+7NH4FYu3mQ3bLXUSAwReY7usTLK2rqYWXtRPUfdkk2VCEgEnjMEnrqz/TnDp0A3FzZ6ZdlqgW6obJxEQCJQqBGQgqRQf72ycxIBiYBE4MkjIAXJk8dY1iARkAhIBAo1AmY720NDdS/jFGo0ZOckAhIBiYBEwGIEpEZiMWQyg0RAIiARkAhoEZCCRIuGDEsEJAISAYmAxQhYLEimj42mgwt1e9dbXJvMIBGQCEgEJAKFDgGLBcnKXQ7k65VKI7pn3Zup0KEjOyQRkAhIBCQCOSJgsSA5ct6W7kcVo3EDdVs751iDZJAISAQkAhKBQo2AxYIEaPy4zpGci6dT15bGNxHDAUAODg78KdToyc5JBCQCEgGJAOVKkPx5zI6ha1kvySiEffr0oRUrVvAHAkWSREAiIBGQCBReBHIlSK7c0p3JXM1Pdx5AdvAUE+ccSJIISAQkAhKBwouA2S8kaiHA4TBJyUXI11P/SFSF586dO3Tvnu6875SUnIWNkk9eJQISAYmAROD5QyBXggTdtLZ+TDFx4jg5I7Rv3z7CR5JEQCIgEZAIFH4EcmXaci+RRkWFDLkaojNxFX6YZA8lAhIBiYBEwBQCuRIkDWvqjrM9fcXGaLm1atWiRYsW8cfLy8soj4yUCEgEJAISgcKBQK4EyWvd4gh+kiVbihtFwc3NjZSPi4uLUR4ZKRGQCEgEJAKFAwGLBYmrUzoF1kii3UfsKTrWeHZvb28VnfDwcDUsAxIBiYBEQCJQ+BAwLgmy6ed/Xonh1Pe/K2GSKzAwkNPOnj1L0dHRJvlkgkRAIiARkAg8/whYvGrr542O9NuO4hTxwPT7IeXKlSMcAztz5sznHyHZA4mAREAiIBHIFoEivr6+wtuRv4QtUkDp6en5W7AsTSIgEZAISAQKHAIWayTm9EAKEHNQkjwSAYmARKBwIGCxj6RwdFv2QiIgEZAISATyCwEpSPILSVmOREAiIBH4hyIgBck/9IuX3ZYISAQkAvmFgNk+ki++msZ1Tv5kSn7VLcuRCEgEJAISgUKAgNRICsGXKLsgEZAISASeJQL/B5Q+7GTKL+fKAAAAAElFTkSuQmCC;" parent="1" vertex="1">
                    <mxGeometry x="360" y="520" width="402" height="99" as="geometry"/>
                </mxCell>
                <mxCell id="9" value="&lt;font color=&quot;#000000&quot;&gt;Tells React to place HTML produced by this component somewhere else&lt;br&gt;&lt;/font&gt;" style="rounded=0;whiteSpace=wrap;html=1;fontFamily=Helvetica;fontSize=12;fontColor=#FFFFFF;fillColor=#99CCFF;" parent="1" vertex="1">
                    <mxGeometry x="40" y="480" width="240" height="70" as="geometry"/>
                </mxCell>
                <mxCell id="10" value="&lt;font color=&quot;#000000&quot;&gt;Reference to an element in out &lt;br&gt;index.html file&lt;br&gt;&lt;/font&gt;" style="rounded=0;whiteSpace=wrap;html=1;fontFamily=Helvetica;fontSize=12;fontColor=#FFFFFF;fillColor=#99CCFF;" parent="1" vertex="1">
                    <mxGeometry x="40" y="590" width="240" height="70" as="geometry"/>
                </mxCell>
                <mxCell id="13" value="" style="endArrow=classic;html=1;exitX=1;exitY=0.5;exitDx=0;exitDy=0;" parent="1" source="9" edge="1">
                    <mxGeometry width="50" height="50" relative="1" as="geometry">
                        <mxPoint x="370" y="610" as="sourcePoint"/>
                        <mxPoint x="420" y="560" as="targetPoint"/>
                    </mxGeometry>
                </mxCell>
                <mxCell id="14" value="" style="endArrow=classic;html=1;exitX=1;exitY=0.5;exitDx=0;exitDy=0;" parent="1" source="10" edge="1">
                    <mxGeometry width="50" height="50" relative="1" as="geometry">
                        <mxPoint x="290" y="540" as="sourcePoint"/>
                        <mxPoint x="430" y="585" as="targetPoint"/>
                    </mxGeometry>
                </mxCell>
            </root>
        </mxGraphModel>
    </diagram>
</mxfile>